<?xml version="1.0" standalone="no"?>
<!DOCTYPE svg PUBLIC "-//W3C//DTD SVG 20010904//EN"
 "http://www.w3.org/TR/2001/REC-SVG-20010904/DTD/svg10.dtd">
<svg version="1.0" xmlns="http://www.w3.org/2000/svg"
 width="130.000000pt" height="130.000000pt" viewBox="0 0 130.000000 130.000000"
 preserveAspectRatio="xMidYMid meet">
<metadata>
Created by potrace 1.14, written by Peter Selinger 2001-2017
</metadata>
<g transform="translate(0.000000,130.000000) scale(0.100000,-0.100000)"
fill="#000000" stroke="none">
<path d="M67 1232 c-15 -17 -17 -72 -17 -585 0 -501 2 -567 16 -581 14 -14 80
-16 583 -16 537 0 569 1 584 18 15 17 17 72 17 585 l0 566 -22 15 c-20 14 -92
16 -584 16 -531 0 -562 -1 -577 -18z m640 -829 c-1 -137 -2 -25 -2 247 0 272
1 384 2 248 2 -137 2 -359 0 -495z m-295 650 c10 -9 18 -29 18 -45 0 -22 4
-28 23 -28 35 0 67 -27 67 -59 0 -36 -17 -51 -57 -51 -31 0 -33 -2 -33 -33 0
-40 -15 -57 -51 -57 -32 0 -59 32 -59 67 0 18 -6 23 -27 23 -31 0 -63 26 -63
52 0 26 36 58 65 58 20 0 25 5 25 25 0 29 32 65 57 65 9 0 25 -7 35 -17z m636
-249 c26 -18 29 -60 5 -86 -14 -15 -32 -18 -129 -18 -108 0 -113 1 -132 25
-23 29 -19 59 11 80 31 22 214 21 245 -1z m0 -220 c30 -20 30 -68 0 -88 -17
-12 -48 -16 -126 -16 -96 0 -105 2 -127 25 -30 29 -31 35 -4 69 20 25 24 26
128 26 80 0 112 -4 129 -16z m-547 -164 c24 -13 25 -57 2 -82 -14 -15 -32 -18
-125 -18 -95 0 -110 2 -128 20 -24 24 -25 38 -4 68 14 20 23 22 125 22 61 0
119 -5 130 -10z"/>
</g>
</svg>
